
<svg width="120" height="40" viewBox="0 0 120 40" fill="none" xmlns="http://www.w3.org/2000/svg">
  <!-- Fondo del logo con gradiente azul-morado -->
  <defs>
    <linearGradient id="logoGradient" x1="0%" y1="0%" x2="100%" y2="100%">
      <stop offset="0%" stop-color="#4361EE" />
      <stop offset="100%" stop-color="#7E69AB" />
    </linearGradient>
  </defs>
  
  <!-- Forma de gota -->
  <path d="M20 5C17.5 5 12 15 12 22C12 28.6274 15.3726 32 20 32C24.6274 32 28 28.6274 28 22C28 15 22.5 5 20 5Z" fill="url(#logoGradient)"/>
  
  <!-- Rayo dentro de la gota -->
  <path d="M20 13L15 20H19L18 27L24 19H19.5L20 13Z" fill="white"/>
  
  <!-- Texto CLIMADENT -->
  <path d="M35 15H37C39.2 15 41 16.8 41 19V21C41 23.2 39.2 25 37 25H35V15ZM37 23C38.1 23 39 22.1 39 21V19C39 17.9 38.1 17 37 17H37V23H37Z" fill="url(#logoGradient)"/>
  <path d="M43 15H45V23H50V25H43V15Z" fill="url(#logoGradient)"/>
  <path d="M52 15H54V25H52V15Z" fill="url(#logoGradient)"/>
  <path d="M61 15H63L66 25H64L63.25 22H60.75L60 25H58L61 15ZM63 20L62 17L61 20H63Z" fill="url(#logoGradient)"/>
  <path d="M68 15H70L73 21V15H75V25H73L70 19V25H68V15Z" fill="url(#logoGradient)"/>
  <path d="M77 15H84V17H79V19H83V21H79V23H84V25H77V15Z" fill="url(#logoGradient)"/>
  <path d="M86 15H88L91 21V15H93V25H91L88 19V25H86V15Z" fill="url(#logoGradient)"/>
  <path d="M95 15H103V17H97V19H101V21H97V23H103V25H95V15Z" fill="url(#logoGradient)"/>
  <path d="M104 15H106V25H104V15Z" fill="url(#logoGradient)"/>
</svg>
