
<svg width="120" height="40" viewBox="0 0 120 40" fill="none" xmlns="http://www.w3.org/2000/svg">
  <path d="M20 8C13.373 8 8 13.373 8 20C8 26.627 13.373 32 20 32C26.627 32 32 26.627 32 20C32 13.373 26.627 8 20 8ZM20 30C14.486 30 10 25.514 10 20C10 14.486 14.486 10 20 10C25.514 10 30 14.486 30 20C30 25.514 25.514 30 20 30Z" fill="#0093E9"/>
  <path d="M20 14C17.794 14 16 15.794 16 18V22C16 24.206 17.794 26 20 26C22.206 26 24 24.206 24 22V18C24 15.794 22.206 14 20 14ZM22 22C22 23.103 21.103 24 20 24C18.897 24 18 23.103 18 22V18C18 16.897 18.897 16 20 16C21.103 16 22 16.897 22 18V22Z" fill="#0093E9"/>
  <path d="M40 15H44.5C46.433 15 48 16.567 48 18.5C48 20.433 46.433 22 44.5 22H42V25H40V15ZM44.5 20C45.328 20 46 19.328 46 18.5C46 17.672 45.328 17 44.5 17H42V20H44.5Z" fill="#0093E9"/>
  <path d="M50 15H52V23H58V25H50V15Z" fill="#0093E9"/>
  <path d="M60 15H62V25H60V15Z" fill="#0093E9"/>
  <path d="M70 15H72.5L76 25H73.8L73 23H67L66.2 25H64L67.5 15H70ZM72 21L70 16L68 21H72Z" fill="#0093E9"/>
  <path d="M77 15H79V25H77V15Z" fill="#0093E9"/>
  <path d="M81 15H83V23H89V25H81V15Z" fill="#0093E9"/>
  <path d="M96 15H98V25H96L91 19V25H89V15H91L96 21V15Z" fill="#0093E9"/>
  <path d="M100 19C100 16.791 101.791 15 104 15H106C108.209 15 110 16.791 110 19V21C110 23.209 108.209 25 106 25H104C101.791 25 100 23.209 100 21V19ZM102 21C102 22.103 102.897 23 104 23H106C107.103 23 108 22.103 108 21V19C108 17.897 107.103 17 106 17H104C102.897 17 102 17.897 102 19V21Z" fill="#0093E9"/>
</svg>
